# Blender 4.2.1 LTS
# www.blender.org
mtllib armario_corpo.mtl
o armario
v 0.000000 0.910662 0.650000
v 0.002555 -1.089338 0.650000
v 0.002555 -1.088190 0.428464
v -0.000000 -1.038635 0.402801
v -0.000000 -1.028814 0.382798
v -0.000000 -1.027177 0.354871
v -0.000000 -1.036180 0.320151
v -0.000000 -1.047637 0.282788
v -0.000000 -1.051729 0.250332
v -0.000000 -1.050092 0.228443
v -0.000000 -1.044364 0.211083
v -0.000000 -1.036180 0.193723
v -0.000000 -1.052138 0.168437
v -0.000000 -1.064414 0.122999
v -0.000000 -1.070896 0.078436
v -0.000000 -1.072074 0.028438
v -0.000000 -1.073015 0.000000
v 0.000000 0.910662 -0.000000
v 0.001277 -1.053985 0.416175
v 0.001916 -1.072855 0.428841
v 0.000168 0.829708 0.650000
v 0.002387 -0.957967 0.650000
v 0.000000 0.910662 0.567620
v 0.002555 -1.088764 0.582976
v 0.002555 -1.088764 -0.582976
v 0.000168 0.829708 -0.650000
v 0.002387 -0.957967 -0.650000
v 0.000168 0.829708 0.566826
v 0.000168 0.829708 -0.566826
v 0.002387 -0.957967 0.576668
v 0.002387 -0.957967 -0.576668
v 0.000168 0.829708 -0.000000
v 0.002387 -0.957967 -0.000000
v -0.797445 0.910662 0.650000
v -0.794890 -1.089338 0.650000
v -0.794890 -1.088190 0.428464
v -0.797445 -1.038635 0.402801
v -0.797445 -1.028814 0.382798
v -0.797445 -1.027177 0.354871
v -0.797445 -1.036180 0.320151
v -0.797445 -1.047637 0.282788
v -0.797445 -1.051729 0.250332
v -0.797445 -1.050092 0.228443
v -0.797445 -1.044364 0.211083
v -0.797445 -1.036180 0.193723
v -0.797445 -1.052138 0.168437
v -0.797445 -1.064414 0.122999
v -0.797445 -1.070896 0.078436
v -0.797445 -1.072074 0.028438
v -0.797445 -1.073015 0.000000
v -0.797445 0.910662 0.000000
v -0.796168 -1.053985 0.416175
v -0.795529 -1.072855 0.428841
v -0.797277 0.829708 0.650000
v -0.795058 -0.957967 0.650000
v -0.797445 0.910662 0.567620
v -0.794890 -1.088764 0.582976
v -0.794890 -1.088764 -0.582976
v -0.795058 -0.957967 -0.650000
v -0.797277 0.829708 0.566826
v -0.795058 -0.957967 0.576668
v -0.795058 -0.957967 -0.576668
v -0.797277 0.829708 0.000000
v -0.795058 -0.957967 0.000000
v 0.000000 0.910662 -0.650000
v 0.002555 -1.089338 -0.650000
v 0.002555 -1.088190 -0.428464
v -0.000000 -1.038635 -0.402801
v -0.000000 -1.028814 -0.382798
v -0.000000 -1.027177 -0.354871
v -0.000000 -1.036180 -0.320151
v -0.000000 -1.047637 -0.282788
v -0.000000 -1.051729 -0.250332
v -0.000000 -1.050092 -0.228443
v -0.000000 -1.044364 -0.211083
v -0.000000 -1.036180 -0.193723
v -0.000000 -1.052138 -0.168437
v -0.000000 -1.064414 -0.122999
v -0.000000 -1.070896 -0.078436
v -0.000000 -1.072074 -0.028438
v 0.001277 -1.053985 -0.416175
v 0.001916 -1.072855 -0.428841
v 0.000168 0.829708 -0.650000
v 0.002387 -0.957967 -0.650000
v -0.000000 0.910662 -0.567620
v 0.002555 -1.088764 -0.582976
v 0.002555 -1.088764 0.582976
v 0.000168 0.829708 0.650000
v 0.002387 -0.957967 0.650000
v 0.000168 0.829708 -0.566826
v 0.000168 0.829708 0.566826
v 0.002387 -0.957967 -0.576668
v 0.002387 -0.957967 0.576668
v -0.797445 0.910662 -0.650000
v -0.794890 -1.089338 -0.650000
v -0.794890 -1.088190 -0.428463
v -0.797445 -1.038635 -0.402800
v -0.797445 -1.028814 -0.382798
v -0.797445 -1.027177 -0.354871
v -0.797445 -1.036180 -0.320151
v -0.797445 -1.047637 -0.282788
v -0.797445 -1.051729 -0.250332
v -0.797445 -1.050092 -0.228443
v -0.797445 -1.044364 -0.211083
v -0.797445 -1.036180 -0.193723
v -0.797445 -1.052138 -0.168437
v -0.797445 -1.064414 -0.122999
v -0.797445 -1.070896 -0.078435
v -0.797445 -1.072074 -0.028438
v -0.796168 -1.053985 -0.416175
v -0.795529 -1.072855 -0.428841
v -0.797277 0.829708 -0.650000
v -0.795058 -0.957967 -0.650000
v -0.797445 0.910662 -0.567620
v -0.794890 -1.088764 -0.582976
v -0.794890 -1.088764 0.582976
v -0.795058 -0.957967 0.650000
v -0.797277 0.829708 -0.566826
v -0.795058 -0.957967 -0.576668
v -0.795058 -0.957967 0.576668
vn -0.0000 -0.9045 -0.4264
vn -0.0000 -0.8457 0.5337
vn 1.0000 0.0021 -0.0000
vn -0.0000 -0.9654 0.2608
vn -0.0000 1.0000 -0.0000
vn -0.0000 -0.9896 0.1439
vn -0.0000 -0.0000 1.0000
vn -0.0000 -0.0055 -1.0000
vn -0.0000 -0.9997 0.0236
vn -0.0000 -1.0000 -0.0037
vn -0.0000 -0.9995 0.0331
vn -0.0000 -0.6569 -0.7539
vn -0.0000 -0.8976 -0.4407
vn -0.0000 -1.0000 -0.0000
vn -0.0000 -0.5573 -0.8303
vn -0.0000 -0.9983 -0.0585
vn -0.0000 0.0246 -0.9997
vn -0.0000 -0.9680 0.2510
vn -0.0000 0.0482 -0.9988
vn -0.0000 -0.9561 0.2932
vn -0.0000 0.0482 0.9988
vn -0.0000 -0.9921 0.1251
vn -0.0000 -0.9972 -0.0746
vn -0.0000 -1.0000 -0.0086
vn -0.0000 -0.9496 -0.3134
vn 1.0000 0.0013 -0.0000
vn 0.9999 -0.0162 -0.0018
vn 1.0000 0.0012 -0.0000
vn -1.0000 -0.0013 -0.0000
vn -0.9999 0.0162 0.0018
vn -1.0000 -0.0021 -0.0000
vn -0.0000 -0.9045 0.4264
vn -0.0000 -0.8457 -0.5337
vn -0.0000 -0.9654 -0.2608
vn -0.0000 -0.9896 -0.1439
vn -0.0000 -0.0000 -1.0000
vn -0.0000 -0.0055 1.0000
vn -0.0000 -0.9997 -0.0236
vn -0.0000 -1.0000 0.0037
vn -0.0000 -0.9995 -0.0331
vn -0.0000 -0.6569 0.7539
vn -0.0000 -0.8976 0.4407
vn -0.0000 -0.5573 0.8303
vn -0.0000 -0.9983 0.0585
vn -0.0000 0.0246 0.9997
vn -0.0000 -0.9680 -0.2510
vn -0.0000 -0.9561 -0.2932
vn -0.0000 -0.9921 -0.1251
vn -0.0000 -0.9972 0.0746
vn -0.0000 -1.0000 0.0086
vn -0.0000 -0.9496 0.3134
vn 0.9999 -0.0162 0.0018
vn -0.9999 0.0162 -0.0018
vt 0.000000 0.000000
s 1
usemtl Material
f 11/1/1 44/1/1 45/1/1 12/1/1
f 12/1/2 45/1/2 46/1/2 13/1/2
f 18/1/3 23/1/3 28/1/3 32/1/3
f 13/1/4 46/1/4 47/1/4 14/1/4
f 21/1/5 28/1/5 60/1/5 54/1/5
f 14/1/6 47/1/6 48/1/6 15/1/6
f 22/1/7 55/1/7 35/1/7 2/1/7
f 28/1/8 30/1/8 61/1/8 60/1/8
f 15/1/9 48/1/9 49/1/9 16/1/9
f 24/1/10 57/1/10 36/1/10 3/1/10
f 22/1/5 30/1/5 61/1/5 55/1/5
f 16/1/11 49/1/11 50/1/11 17/1/11
f 19/1/12 52/1/12 37/1/12 4/1/12
f 31/1/5 62/1/5 64/1/5 33/1/5
f 23/1/5 18/1/5 51/1/5 56/1/5
f 4/1/13 37/1/13 38/1/13 5/1/13
f 28/1/14 60/1/14 63/1/14 32/1/14
f 20/1/15 53/1/15 52/1/15 19/1/15
f 5/1/16 38/1/16 39/1/16 6/1/16
f 30/1/5 33/1/5 64/1/5 61/1/5
f 3/1/17 36/1/17 53/1/17 20/1/17
f 6/1/18 39/1/18 40/1/18 7/1/18
f 25/1/19 58/1/19 62/1/19 31/1/19
f 1/1/7 34/1/7 54/1/7 21/1/7
f 7/1/20 40/1/20 41/1/20 8/1/20
f 24/1/21 30/1/21 61/1/21 57/1/21
f 21/1/7 54/1/7 55/1/7 22/1/7
f 8/1/22 41/1/22 42/1/22 9/1/22
f 1/1/5 23/1/5 56/1/5 34/1/5
f 9/1/23 42/1/23 43/1/23 10/1/23
f 2/1/24 35/1/24 57/1/24 24/1/24
f 10/1/25 43/1/25 44/1/25 11/1/25
f 21/1/3 28/1/3 23/1/3 1/1/3
f 22/1/26 2/1/26 24/1/26 30/1/26
f 24/1/27 3/1/27 20/1/27 19/1/27 4/1/27 5/1/27 6/1/27 7/1/27 8/1/27 9/1/27 10/1/27 11/1/27 12/1/27 13/1/27 14/1/27 15/1/27 16/1/27 17/1/27 33/1/27 30/1/27
f 27/1/28 26/1/28 29/1/28 31/1/28
f 21/1/28 22/1/28 30/1/28 28/1/28
f 55/1/29 61/1/29 57/1/29 35/1/29
f 61/1/30 64/1/30 50/1/30 49/1/30 48/1/30 47/1/30 46/1/30 45/1/30 44/1/30 43/1/30 42/1/30 41/1/30 40/1/30 39/1/30 38/1/30 37/1/30 52/1/30 53/1/30 36/1/30 57/1/30
f 62/1/29 59/1/29 58/1/29
f 51/1/31 63/1/31 60/1/31 56/1/31
f 60/1/29 61/1/29 55/1/29 54/1/29 34/1/29 56/1/29
f 75/1/32 76/1/32 105/1/32 104/1/32
f 76/1/33 77/1/33 106/1/33 105/1/33
f 18/1/3 32/1/3 90/1/3 85/1/3
f 77/1/34 78/1/34 107/1/34 106/1/34
f 83/1/5 112/1/5 118/1/5 90/1/5
f 78/1/35 79/1/35 108/1/35 107/1/35
f 84/1/36 66/1/36 95/1/36 113/1/36
f 90/1/37 118/1/37 119/1/37 92/1/37
f 79/1/38 80/1/38 109/1/38 108/1/38
f 86/1/39 67/1/39 96/1/39 115/1/39
f 84/1/5 113/1/5 119/1/5 92/1/5
f 80/1/40 17/1/40 50/1/40 109/1/40
f 81/1/41 68/1/41 97/1/41 110/1/41
f 93/1/5 33/1/5 64/1/5 120/1/5
f 85/1/5 114/1/5 51/1/5 18/1/5
f 68/1/42 69/1/42 98/1/42 97/1/42
f 90/1/14 32/1/14 63/1/14 118/1/14
f 82/1/43 81/1/43 110/1/43 111/1/43
f 69/1/44 70/1/44 99/1/44 98/1/44
f 92/1/5 119/1/5 64/1/5 33/1/5
f 67/1/45 82/1/45 111/1/45 96/1/45
f 70/1/46 71/1/46 100/1/46 99/1/46
f 87/1/21 93/1/21 120/1/21 116/1/21
f 65/1/36 83/1/36 112/1/36 94/1/36
f 71/1/47 72/1/47 101/1/47 100/1/47
f 86/1/19 115/1/19 119/1/19 92/1/19
f 83/1/36 84/1/36 113/1/36 112/1/36
f 72/1/48 73/1/48 102/1/48 101/1/48
f 65/1/5 94/1/5 114/1/5 85/1/5
f 73/1/49 74/1/49 103/1/49 102/1/49
f 66/1/50 86/1/50 115/1/50 95/1/50
f 74/1/51 75/1/51 104/1/51 103/1/51
f 83/1/3 65/1/3 85/1/3 90/1/3
f 84/1/26 92/1/26 86/1/26 66/1/26
f 86/1/52 92/1/52 33/1/52 17/1/52 80/1/52 79/1/52 78/1/52 77/1/52 76/1/52 75/1/52 74/1/52 73/1/52 72/1/52 71/1/52 70/1/52 69/1/52 68/1/52 81/1/52 82/1/52 67/1/52
f 89/1/28 93/1/28 91/1/28 88/1/28
f 83/1/28 90/1/28 92/1/28 84/1/28
f 113/1/29 95/1/29 115/1/29 119/1/29
f 119/1/53 115/1/53 96/1/53 111/1/53 110/1/53 97/1/53 98/1/53 99/1/53 100/1/53 101/1/53 102/1/53 103/1/53 104/1/53 105/1/53 106/1/53 107/1/53 108/1/53 109/1/53 50/1/53 64/1/53
f 120/1/29 116/1/29 117/1/29
f 51/1/31 114/1/31 118/1/31 63/1/31
f 118/1/29 114/1/29 94/1/29 112/1/29 113/1/29 119/1/29
l 29 32
l 27 59
l 91 32
l 89 117
