{
	"asset":{
		"generator":"Khronos glTF Blender I/O v3.6.28",
		"version":"2.0"
	},
	"scene":0,
	"scenes":[
		{
			"name":"Scene",
			"nodes":[
				0
			]
		}
	],
	"nodes":[
		{
			"mesh":0,
			"name":"Cube.002",
			"scale":[
				0.2929946482181549,
				0.04735070839524269,
				0.4346471428871155
			],
			"translation":[
				-0.6883901953697205,
				0,
				0
			]
		}
	],
	"materials":[
		{
			"doubleSided":true,
			"name":"Material.004",
			"pbrMetallicRoughness":{
				"baseColorTexture":{
					"index":0
				},
				"metallicFactor":0,
				"roughnessFactor":0.5
			}
		},
		{
			"doubleSided":true,
			"name":"Material.002",
			"pbrMetallicRoughness":{
				"baseColorTexture":{
					"index":1
				},
				"metallicFactor":0,
				"roughnessFactor":0.5
			}
		}
	],
	"meshes":[
		{
			"name":"Cube.003",
			"primitives":[
				{
					"attributes":{
						"POSITION":0,
						"NORMAL":1,
						"TEXCOORD_0":2
					},
					"indices":3,
					"material":0
				},
				{
					"attributes":{
						"POSITION":4,
						"NORMAL":5,
						"TEXCOORD_0":6
					},
					"indices":7,
					"material":1
				}
			]
		}
	],
	"textures":[
		{
			"sampler":0,
			"source":0
		},
		{
			"sampler":0,
			"source":1
		}
	],
	"images":[
		{
			"bufferView":4,
			"mimeType":"image/png",
			"name":"fb4cbc1ec1847d83e5795625a2ebb2af.png"
		},
		{
			"bufferView":9,
			"mimeType":"image/png",
			"name":"depositphotos_70147859-stock-photo-texture-of-old-book-pages"
		}
	],
	"accessors":[
		{
			"bufferView":0,
			"componentType":5126,
			"count":146,
			"max":[
				1,
				1,
				1
			],
			"min":[
				-1.045220971107483,
				-1,
				-1
			],
			"type":"VEC3"
		},
		{
			"bufferView":1,
			"componentType":5126,
			"count":146,
			"type":"VEC3"
		},
		{
			"bufferView":2,
			"componentType":5126,
			"count":146,
			"type":"VEC2"
		},
		{
			"bufferView":3,
			"componentType":5123,
			"count":300,
			"type":"SCALAR"
		},
		{
			"bufferView":5,
			"componentType":5126,
			"count":12,
			"max":[
				0.9524568915367126,
				0.711370050907135,
				0.9524568915367126
			],
			"min":[
				-0.9448632001876831,
				-0.711370050907135,
				-0.9524568915367126
			],
			"type":"VEC3"
		},
		{
			"bufferView":6,
			"componentType":5126,
			"count":12,
			"type":"VEC3"
		},
		{
			"bufferView":7,
			"componentType":5126,
			"count":12,
			"type":"VEC2"
		},
		{
			"bufferView":8,
			"componentType":5123,
			"count":18,
			"type":"SCALAR"
		}
	],
	"bufferViews":[
		{
			"buffer":0,
			"byteLength":1752,
			"byteOffset":0,
			"target":34962
		},
		{
			"buffer":0,
			"byteLength":1752,
			"byteOffset":1752,
			"target":34962
		},
		{
			"buffer":0,
			"byteLength":1168,
			"byteOffset":3504,
			"target":34962
		},
		{
			"buffer":0,
			"byteLength":600,
			"byteOffset":4672,
			"target":34963
		},
		{
			"buffer":0,
			"byteLength":1355217,
			"byteOffset":5272
		},
		{
			"buffer":0,
			"byteLength":144,
			"byteOffset":1360492,
			"target":34962
		},
		{
			"buffer":0,
			"byteLength":144,
			"byteOffset":1360636,
			"target":34962
		},
		{
			"buffer":0,
			"byteLength":96,
			"byteOffset":1360780,
			"target":34962
		},
		{
			"buffer":0,
			"byteLength":36,
			"byteOffset":1360876,
			"target":34963
		},
		{
			"buffer":0,
			"byteLength":1043025,
			"byteOffset":1360912
		}
	],
	"samplers":[
		{
			"magFilter":9729,
			"minFilter":9987
		}
	],
	"buffers":[
		{
			"byteLength":2403940,
			"uri":"data:application/octet-stream;base64,"
		}
	]
}
